<?xml version="1.0" standalone="no"?>
<!DOCTYPE svg PUBLIC "-//W3C//DTD SVG 20010904//EN"
 "http://www.w3.org/TR/2001/REC-SVG-20010904/DTD/svg10.dtd">
<svg version="1.0" xmlns="http://www.w3.org/2000/svg"
 width="770.000000pt" height="1026.000000pt" viewBox="0 0 770.000000 1026.000000"
 preserveAspectRatio="xMidYMid meet">

<g transform="translate(0.000000,1026.000000) scale(0.100000,-0.100000)"
fill="#000000" stroke="none">
<path d="M3683 10249 c-1026 -65 -1945 -668 -2414 -1583 -224 -438 -322 -847
-322 -1346 -1 -456 83 -842 273 -1255 l32 -70 142 145 c397 408 675 809 1226
1765 559 971 881 1434 1145 1644 256 205 427 136 534 -214 74 -243 96 -429 95
-800 0 -308 -13 -468 -60 -775 -22 -143 -91 -507 -111 -580 -4 -15 33 23 87
90 438 540 776 799 980 750 98 -23 168 -112 214 -272 93 -322 37 -704 -201
-1362 -77 -215 -92 -280 -73 -326 48 -116 339 -81 682 82 70 34 130 59 131 57
2 -2 15 -69 30 -149 28 -152 34 -248 17 -281 -20 -37 -335 -179 -475 -214 -38
-10 -108 -18 -155 -19 -75 0 -93 3 -143 27 -142 70 -192 208 -192 532 1 268
30 403 198 920 52 160 102 325 112 368 l17 77 -26 35 c-42 54 -79 70 -167 70
-69 -1 -84 -4 -160 -42 -109 -54 -231 -157 -444 -374 -197 -201 -333 -361
-524 -616 -134 -179 -137 -183 -175 -300 -49 -151 -189 -538 -258 -715 l-54
-137 -29 142 c-49 235 -52 218 104 607 351 881 511 1412 582 1945 29 215 31
566 5 735 -43 281 -124 400 -263 386 -220 -20 -573 -408 -1001 -1098 -49 -79
-210 -354 -357 -613 -148 -258 -320 -555 -383 -660 -265 -438 -533 -806 -772
-1058 -44 -47 -80 -89 -80 -94 0 -34 216 -297 366 -445 318 -313 686 -543
1099 -684 222 -76 488 -135 698 -155 164 -15 534 -6 677 16 416 65 754 185
1098 389 506 301 944 794 1178 1325 161 365 240 715 251 1112 18 631 -148
1210 -498 1730 -222 331 -563 657 -904 864 -419 255 -862 393 -1361 425 -173
11 -190 11 -371 -1z"/>
<path d="M30 2810 l0 -690 120 0 120 0 2 534 3 535 326 -532 326 -532 156 -3
157 -3 0 691 0 690 -120 0 -120 0 -2 -517 -3 -518 -320 517 -320 518 -162 0
-163 0 0 -690z"/>
<path d="M2251 3483 c-7 -14 -567 -1300 -588 -1351 -4 -10 24 -12 132 -10
l137 3 62 155 61 155 302 3 301 2 64 -160 63 -160 138 0 c75 0 137 3 137 8 0
4 -132 313 -293 687 l-293 680 -106 3 c-94 2 -108 1 -117 -15z m219 -564 c55
-145 100 -267 100 -271 0 -5 -97 -8 -216 -8 -202 0 -216 1 -210 18 131 347
212 547 218 537 4 -7 53 -132 108 -276z"/>
<path d="M3410 3395 l0 -105 365 0 c201 0 365 -3 365 -6 0 -3 -166 -215 -370
-471 l-370 -466 0 -114 0 -113 525 0 525 0 0 105 0 105 -380 0 c-209 0 -380 3
-380 6 0 4 169 217 375 475 l375 469 0 110 0 110 -515 0 -515 0 0 -105z"/>
<path d="M4880 3395 l0 -105 365 0 c201 0 365 -3 365 -6 0 -3 -166 -215 -370
-471 l-370 -466 0 -114 0 -113 525 0 525 0 0 105 0 105 -380 0 c-209 0 -380 3
-380 6 0 4 169 217 375 475 l375 469 0 110 0 110 -515 0 -515 0 0 -105z"/>
<path d="M6847 3488 c-3 -7 -136 -314 -296 -682 -160 -368 -291 -673 -291
-678 0 -4 60 -8 133 -8 l134 0 62 160 62 160 301 -2 301 -3 65 -157 65 -158
138 0 139 0 -13 33 c-8 17 -141 328 -297 690 l-283 657 -107 0 c-77 0 -109 -4
-113 -12z m217 -567 c53 -140 96 -260 96 -268 0 -10 -41 -13 -210 -13 -141 0
-210 3 -210 11 0 8 126 341 208 548 4 11 7 10 12 -5 4 -10 51 -133 104 -273z"/>
<path d="M1732 680 c-44 -20 -62 -44 -45 -61 7 -7 23 -2 48 15 50 34 99 42
149 25 51 -18 79 -56 80 -111 l1 -43 -100 -5 c-151 -9 -215 -53 -215 -150 0
-85 59 -134 160 -134 62 1 108 21 139 60 19 24 21 25 21 6 0 -32 11 -52 27
-52 13 0 15 25 12 183 -5 205 -14 236 -79 269 -48 24 -142 23 -198 -2z m235
-265 c-7 -67 -31 -112 -77 -142 -57 -39 -162 -25 -190 26 -21 39 -12 91 20
121 37 35 84 48 179 49 l74 1 -6 -55z"/>
<path d="M2570 684 c-177 -76 -186 -361 -14 -445 34 -16 65 -23 109 -23 67 1
111 18 164 68 l34 31 -6 -71 c-9 -113 -46 -181 -114 -210 -66 -28 -162 -12
-217 37 -19 16 -38 29 -44 29 -23 0 -23 -23 -1 -47 42 -45 71 -53 182 -53 92
0 108 3 138 23 80 54 98 139 99 460 0 200 -1 207 -20 207 -17 0 -20 -7 -20
-40 0 -22 -2 -40 -4 -40 -2 0 -19 15 -38 33 -59 55 -172 74 -248 41z m166 -33
c68 -31 124 -117 124 -192 0 -49 -23 -102 -61 -144 -50 -54 -85 -69 -153 -63
-94 8 -162 80 -173 183 -7 70 14 129 65 177 61 59 126 72 198 39z"/>
<path d="M3460 684 c-46 -20 -77 -50 -103 -99 -29 -54 -31 -193 -3 -245 52
-99 148 -143 260 -120 51 10 136 67 136 91 0 24 -33 20 -63 -9 -72 -69 -179
-71 -251 -4 -34 32 -65 96 -66 135 l0 27 195 0 195 0 0 43 c0 49 -27 113 -61
144 -56 51 -166 69 -239 37z m139 -24 c57 -16 109 -75 125 -142 l6 -28 -180 0
c-201 0 -197 -2 -161 68 46 90 123 127 210 102z"/>
<path d="M4330 689 c-14 -6 -42 -26 -62 -47 l-38 -36 0 42 c0 31 -4 42 -15 42
-13 0 -15 -32 -15 -230 0 -221 1 -230 19 -230 18 0 20 10 23 153 3 131 6 158
24 192 40 77 129 114 193 79 66 -36 76 -67 79 -256 4 -161 4 -168 24 -168 20
0 20 4 16 173 -5 194 -16 233 -77 274 -37 25 -123 31 -171 12z"/>
<path d="M5144 686 c-126 -55 -177 -221 -110 -354 55 -109 199 -150 318 -91
45 23 52 33 33 49 -11 9 -21 7 -47 -12 -27 -18 -46 -23 -99 -23 -85 0 -135 30
-173 106 -43 88 -30 174 39 245 68 71 152 81 230 28 29 -19 40 -22 51 -13 12
9 12 15 2 27 -39 46 -175 68 -244 38z"/>
<path d="M5720 686 c0 -3 39 -105 87 -228 47 -123 86 -230 85 -238 -1 -33 -54
-149 -77 -170 -17 -16 -32 -21 -54 -18 -27 4 -41 -6 -41 -28 0 -2 24 -4 53 -4
44 0 58 4 76 24 14 15 71 153 142 342 66 175 119 319 119 321 0 3 -10 3 -21 1
-19 -3 -33 -34 -93 -200 -40 -109 -74 -199 -77 -202 -2 -3 -39 86 -81 197 -63
167 -80 203 -97 205 -12 2 -21 1 -21 -2z"/>
</g>
</svg>
